<?xml version="1.0" standalone="no"?>
<!DOCTYPE svg PUBLIC "-//W3C//DTD SVG 20010904//EN"
 "http://www.w3.org/TR/2001/REC-SVG-20010904/DTD/svg10.dtd">
<svg version="1.0" xmlns="http://www.w3.org/2000/svg"
 width="2500.000000pt" height="2500.000000pt" viewBox="0 0 2500.000000 2500.000000"
 preserveAspectRatio="xMidYMid meet">
<metadata>
Created by potrace 1.11, written by Peter Selinger 2001-2013
</metadata>
<g transform="translate(0.000000,2500.000000) scale(0.100000,-0.100000)"
fill="#000000" stroke="none">
<path d="M19396 20319 c-402 -27 -843 -103 -1263 -218 -341 -94 -585 -184
-878 -325 -877 -423 -1550 -1049 -2029 -1885 -372 -647 -554 -1276 -617 -2126
-14 -199 -15 -733 0 -915 49 -617 168 -1078 408 -1590 321 -683 864 -1295
1548 -1744 336 -222 598 -368 1164 -650 540 -269 703 -360 968 -537 266 -178
396 -332 463 -544 31 -99 39 -276 16 -377 -55 -248 -227 -405 -534 -490 -68
-19 -104 -22 -297 -22 -235 0 -330 10 -554 60 -479 108 -1049 391 -1511 753
-63 49 -118 87 -122 83 -3 -4 -499 -790 -1102 -1746 -1056 -1677 -1095 -1741
-1078 -1759 31 -35 256 -212 394 -310 990 -703 2190 -1149 3423 -1271 549 -55
1154 -46 1645 25 1203 172 2205 635 2949 1363 359 352 637 743 875 1231 273
558 415 1103 482 1855 22 236 25 853 6 1050 -59 609 -174 1025 -417 1510 -248
495 -523 878 -901 1255 -509 508 -997 831 -2134 1410 -502 256 -676 351 -855
470 -192 127 -298 262 -341 435 -20 78 -14 303 10 388 52 186 149 296 342 388
233 112 518 136 834 73 429 -86 976 -386 1338 -733 70 -68 85 -77 96 -65 16
18 2246 3417 2252 3434 6 14 -133 141 -296 272 -402 320 -889 599 -1428 818
-625 253 -1267 390 -2037 435 -196 11 -645 11 -819 -1z"/>
<path d="M2300 17620 l0 -1260 -640 0 -640 0 0 -1700 0 -1700 650 0 650 0 0
-2152 c0 -2139 4 -2445 36 -2778 44 -475 140 -925 275 -1290 108 -293 301
-639 477 -860 503 -628 1264 -985 2332 -1095 947 -97 2131 39 2670 308 l85 42
3 1733 c1 952 1 1732 -1 1732 -2 0 -41 -13 -88 -29 -203 -68 -396 -101 -599
-101 -421 0 -707 146 -859 440 -70 133 -113 283 -149 510 -14 94 -16 292 -19
1823 l-4 1717 956 0 955 0 0 1700 0 1700 -955 0 -955 0 0 1260 0 1260 -2090 0
-2090 0 0 -1260z"/>
<path d="M11080 12993 c-50 -8 -127 -36 -195 -71 -96 -49 -242 -196 -310 -312
-178 -304 -305 -802 -357 -1395 -19 -225 -16 -817 5 -1035 52 -519 155 -954
294 -1235 67 -135 127 -221 223 -316 137 -137 284 -199 470 -199 167 0 293 40
424 134 266 190 473 624 555 1169 102 670 90 1474 -30 2072 -124 618 -319 975
-611 1119 -51 26 -124 53 -163 61 -64 13 -245 18 -305 8z"/>
</g>
</svg>
